<?xml version="1.0" standalone="no"?>
<!DOCTYPE svg PUBLIC "-//W3C//DTD SVG 1.1//EN" "http://www.w3.org/Graphics/SVG/1.1/DTD/svg11.dtd">
<svg xmlns="http://www.w3.org/2000/svg">
<metadata>Copyright (C) 2015 by original authors @ fontello.com</metadata>
<defs>
<font id="fontello" horiz-adv-x="1000" >
<font-face font-family="fontello" font-weight="400" font-stretch="normal" units-per-em="1000" ascent="850" descent="-150" />
<missing-glyph horiz-adv-x="1000" />
<glyph glyph-name="actividades" unicode="&#xe800;" d="m29 844c11 0 20 0 28 0 140 0 279-1 419 0 18 0 31-6 43-19 41-43 83-87 125-130 2-2 5-5 9-8 5 4 9 9 14 13 31 31 61 62 92 92 11 10 25 18 39 24 15 7 29 2 41-10 38-38 76-75 114-113 15-16 18-34 7-55-5-10-14-20-22-29-51-52-103-103-154-155-6-7-11-18-11-27-1-176-1-351-1-526 0-7 0-14 0-22-248 0-495 0-743 0 0 321 0 642 0 965z m162-524c7 0 13 0 20 0 37 0 74 0 111 0 12-1 17 4 22 15 15 37 25 78 60 104 1 1 0 1 0 4-71 0-142 0-213 0 0 14 0 26 0 39 7 0 14 0 20 0 69 0 137 3 206-1 37-2 51 22 75 45-16 0-26 0-38 0 0 81 0 159 0 238-116 0-231 0-346 0 0-270 0-537 0-806 195 0 390 0 585 0 0 135 0 269 0 406-35-35-69-66-101-101-24-26-52-45-86-57-39-14-76-30-115-46 1-1 1-2 1-3 72 0 144 0 217 0 0-13 0-26 0-38-140 0-279 0-418 0 0 13 0 25 0 38 22 0 43 1 64 0 12-1 17 3 22 14 11 31 25 62 37 93 2 4 3 9 5 17-44 0-86 0-128 0 0 14 0 25 0 39z m205 61c-18-44-36-87-54-131-13-32-13-32 12-57 7-8 13-10 24-5 46 19 93 37 139 56 4 2 8 4 10 5-44 44-87 88-131 132z m119 206c38-4 52 5 81 46-27 26-55 51-81 76 0-39 0-80 0-122z" horiz-adv-x="1000" />
<glyph glyph-name="aereo" unicode="&#xe801;" d="m164 428c22 10 44 22 67 28 21 4 44 1 66 1 90-1 179-2 268-3 9 0 18 2 26 5 84 31 168 64 253 95 32 12 66 13 100 6 6-2 12-4 18-6 27-13 32-39 9-59-9-8-21-15-32-19-98-38-196-75-294-112-8-3-17-10-22-17-36-53-72-106-108-159-5-6-13-12-20-15-33-13-67-25-104-39 25 57 48 110 73 167-30-9-56-17-83-25-27-8-54-17-81-24-7-2-14-3-20-1-76 21-152 46-224 80-11 5-23 12-33 19-15 11-14 24 1 34 8 4 19 7 28 5 56-12 112-23 167-39 36-11 69-12 104 4 18 8 38 13 56 22-72 16-143 33-215 49 0 1 0 2 0 3z" horiz-adv-x="1000" />
<glyph glyph-name="arrow" unicode="&#xe802;" d="" horiz-adv-x="1000" />
<glyph glyph-name="basura" unicode="&#xe803;" d="m128 542c249 0 496 0 745 0 0-7 1-14 1-21 0-190 0-380 0-571 0-62-24-86-86-86-193 0-386 0-579 0-56 0-81 25-81 81 0 191 0 383 0 574 0 8 0 15 0 23z m339-136c0-36 0-69 0-102 0-99 0-199 0-298 0-18 5-31 23-37 25-8 44 9 44 38 0 129 0 257 0 386 0 4-1 9-1 13-22 0-43 0-66 0z m204 0c0-6 0-11 0-15 0-128 0-255 0-383 0-4-1-8 0-12 3-18 14-28 31-29 16-1 29 7 33 23 3 9 3 18 3 28 1 122 1 244 1 367 0 7 0 14 0 21-24 0-45 0-68 0z m-340 0c-23 0-44 0-66 0-1-6-2-11-2-16 0-127 0-253 0-380 0-5 1-11 2-16 3-18 15-27 32-27 17 0 29 9 33 27 1 8 1 17 1 26 0 121 0 242 0 363 0 7 0 15 0 23z m376 273c51 0 103 0 154-1 11 0 22 0 32-2 33-5 50-29 46-65-292 0-584 0-876 0-8 34 16 65 52 66 53 1 105 0 157 0 7 0 15 0 22 0 3 24 3 47 7 69 13 64 51 95 117 95 59 0 117 0 176 0 72-1 108-34 113-105 1-18 0-36 0-57z m-334 1c89 0 177 0 268 0-2 24-3 46-7 67-4 15-13 29-31 29-63 1-126 1-189 0-10 0-23-8-29-17-16-24-17-52-12-79z" horiz-adv-x="1000" />
<glyph glyph-name="calendar" unicode="&#xe804;" d="m443 116c0-20 0-38 0-58-6 0-12-1-18-1-105 0-211 0-316 0-53 0-77 24-77 76 0 166 0 331 0 497 0 53 33 81 89 72 0-9 0-18 0-27 1-34 24-58 56-59 30-2 56 21 60 53 2 11 1 22 2 34 117 0 233 0 352 0 0-10 0-19 0-28 1-34 24-58 56-59 30-2 56 21 60 53 2 11 1 22 2 33 49 10 86-17 87-65 1-75 0-150 0-226-19 0-38 0-59 0 0 38 0 76 0 115-215 0-429 0-644 0-1-6-1-12-1-18 0-124 0-248-1-373 0-16 6-19 20-19 104 1 207 0 310 0 7 0 13 0 22 0z m529-1c0-129-107-235-236-234-130 1-235 107-234 237 1 129 107 234 236 233 129 0 235-106 234-236z m-410 2c0-98 77-176 174-176 99 0 177 77 177 174 0 99-77 177-175 177-98 0-176-77-176-175z m-295 351c0-40 0-77 0-116-39 0-78 0-117 0 0 39 0 77 0 116 39 0 77 0 117 0z m176-116c-39 0-77 0-116 0 0 39 0 77 0 116 39 0 77 0 116 0 0-39 0-77 0-116z m-292-61c39 0 77 0 116 0 0-39 0-77 0-116-39 0-77 0-116 0 0 38 0 76 0 116z m176 0c39 0 77 0 116 0 0-39 0-77 0-116-39 0-77 0-116 0 0 38 0 76 0 116z m176 61c0 39 0 77 0 115 38 0 76 0 115 0 0-38 0-76 0-115-38 0-76 0-115 0z m-354 382c0 18 0 36 0 54 1 20 12 33 30 33 17 0 30-13 30-32 0-37 0-74 0-110 0-22-13-35-31-34-17 1-28 14-29 34 0 19 0 37 0 55z m530-1c0-19 0-37 0-55-1-21-13-33-30-33-18 0-29 13-30 34 0 36 0 73 1 110 0 19 13 33 30 32 16 0 28-13 29-32 0-19 0-38 0-56z m58-617c27 0 51 0 75 0 6 0 12 0 18-1 15-2 25-14 25-28 0-15-11-29-27-29-40-1-81-1-121 0-18 0-28 12-28 31 0 38 0 75 0 113 0 19 12 32 29 32 16 0 29-13 29-30 1-22 0-44 0-65 0-7 0-13 0-23z" horiz-adv-x="1000" />
<glyph glyph-name="cerrar" unicode="&#xe805;" d="m496 265c-6-8-9-14-14-18-122-122-244-244-366-366-37-37-92-25-106 23-7 26 2 46 20 64 122 122 244 244 366 365 5 5 11 9 23 17-11 7-18 10-23 15-122 122-244 244-367 367-36 37-23 92 25 105 24 7 44-1 62-19 53-54 107-107 160-160 70-70 139-139 208-208 4-5 9-9 17-16 5 6 8 12 13 17 122 122 244 244 365 366 19 19 41 28 68 19 41-14 55-64 26-98-5-6-11-12-17-17-119-119-238-238-356-356-5-5-10-8-17-13 7-8 12-13 16-17 123-123 245-245 367-367 38-38 25-94-24-107-25-6-45 3-62 20-87 87-174 174-261 261-40 40-79 80-123 123z" horiz-adv-x="1000" />
<glyph glyph-name="codigo" unicode="&#xe806;" d="m101 349c6-6 10-10 14-15 63-62 126-125 188-187 21-22 21-26 1-47-29-29-29-29-58 0-77 77-153 153-230 230-17 17-17 21 0 38 79 79 157 157 235 236 21 21 25 21 45 0 30-30 30-30-1-60-64-65-128-129-194-195z m535 348c-5-20-10-37-15-54-61-212-123-425-184-637-3-12-4-29-19-28-16 1-33 8-48 15-4 2-3 17-1 25 25 88 50 176 76 264 39 137 79 275 119 413 8 27 11 29 39 22 7-2 14-3 20-7 6-3 10-9 13-13z m264-348c-5 5-9 10-14 14-64 64-128 129-192 193-17 16-17 22-1 38 32 33 32 33 65 0 74-75 149-149 224-224 19-19 19-24 1-42-79-79-157-158-236-236-18-19-23-18-42 1-30 30-30 30-1 60 61 60 122 121 182 182 4 4 9 9 14 14z" horiz-adv-x="1000" />
<glyph glyph-name="comicion" unicode="&#xe807;" d="m452-98c-121 23-239 46-359 69 0 8 0 14 0 20 0 110 1 220 0 330 0 36 17 60 48 74 44 20 91 19 137 13 4-1 9-9 11-14 33-98 65-197 98-295 20-60 40-120 60-180 2-5 3-10 5-17z m40 538c-108 0-194 87-194 196 0 109 87 196 195 196 107-1 194-89 193-197 0-109-86-195-194-195z m40-538c23 68 44 132 65 196 33 98 65 195 97 293 4 12 9 18 23 19 37 3 74 3 110-8 26-8 49-23 60-49 2-7 4-15 4-22 0-117 0-235 0-352 0-2 0-4-1-8-118-23-236-46-358-69z m170 185c38 0 74 0 112 0 4 35 7 69 10 104-45 0-88 0-132 0 3-36 7-70 10-104z m-210 298c32-30 64-59 95-89 3-3 5-10 4-14-30-93-60-187-91-284-3 6-5 9-7 13-31 88-62 177-94 265-4 10-2 16 5 23 29 28 58 57 88 86z m-18 6c-30-30-57-56-83-83 0 0 0 0 0 1-13 25-13 25 10 39 23 14 46 28 73 43z m120-83c-28 27-55 53-82 79 0 0 1 1 1 2 13-7 25-14 38-22 11-6 22-13 34-20 21-13 21-13 9-39z m164-144c-12 0-24 0-36 1-4 0-7 3-10 5 3 2 6 5 9 5 26 0 51 0 76 0 3 0 6-4 9-6-3-1-5-4-8-4-13-1-27-1-40-1z" horiz-adv-x="1000" />
<glyph glyph-name="comparar" unicode="&#xe808;" d="m312 383c-29 0-54 0-79 0-54 0-107 0-161 0-43 0-65 23-66 66 0 27 0 54 0 81 0 46 15 61 62 61 72 0 144 0 215 0 9 0 17 0 29 0 0 37-1 72 0 107 1 11 7 22 11 33 11-4 24-7 33-14 66-59 131-119 196-179 33-30 33-57 1-87-66-60-132-120-199-179-8-8-20-10-30-14-4 11-11 22-12 33-1 29 0 58 0 92z m377-73c84 0 163 0 243 0 41 0 61-20 62-60 0-31 0-62 0-93-1-36-19-54-55-54-72 0-145 0-218 0-9 0-19 0-32 0 0-28 0-54 0-81 0-10 2-21 0-31-2-8-5-20-12-23-6-3-18 2-25 7-29 25-57 52-86 78-38 35-77 70-115 105-35 33-35 59 1 92 63 58 127 116 191 174 3 3 6 7 10 9 8 3 18 9 23 7 7-4 12-15 13-23 1-35 0-69 0-107z" horiz-adv-x="1000" />
<glyph glyph-name="datos" unicode="&#xe809;" d="m496-7c-123 0-246 0-369 0-74 0-112 38-112 112 0 186 0 371 0 557 0 65 40 106 105 106 73 1 146 1 219 0 8 0 17-5 23-10 25-24 50-48 73-73 10-10 20-14 34-14 134 0 269 0 403 0 71 0 110-39 110-109 0-154 0-307 0-461 0-67-40-108-107-108-126 0-253 0-379 0z m2 146c57 65 111 127 166 190-1 1-2 3-3 4-29 0-59 0-91 0 0 65 0 128 0 191-49 0-95 0-144 0 0-64 0-127 0-192-32 0-62 0-96 0 57-66 112-128 168-193z" horiz-adv-x="1000" />
<glyph glyph-name="descargar" unicode="&#xe80a;" d="m11-8c0 131 0 261 0 393 48 0 96 0 147 0 0-81 0-162 0-244 231 0 460 0 690 0 0 81 0 162 0 244 47 0 91 0 138 0 0-130 0-261 0-393-324 0-648 0-975 0z m394 522c0 67 0 132 0 197 66 0 131 0 197 0 0-65 0-130 0-196 59 0 116 0 178 0-94-98-185-191-277-286-91 95-182 188-275 285 61 0 117 0 177 0z" horiz-adv-x="1000" />
<glyph glyph-name="documento" unicode="&#xe80b;" d="m905 176c-9 0-15 0-21 0-78 0-156 0-234 0-26 0-35-9-35-35 0-77 0-155 0-233 0-6 0-12 0-20-7 0-13-1-18-1-145 0-291 0-436 0-45 0-67 22-67 67 0 267 0 533 0 799 0 37 23 61 60 62 230 0 460 0 690-1 35 0 58-22 60-57 1-6 1-12 1-19 0-179 0-359 0-538 0-7 0-14 0-24z m-406 233c62 0 125 0 187 0 24 0 48-1 72 0 21 1 33 16 29 36-3 14-15 22-35 22-169 0-338 0-506 0-5 0-10 0-14-1-17-4-26-19-21-36 4-17 18-21 34-21 85 0 169 0 254 0z m0-116c-86 0-172 0-258 0-19 0-31-11-31-29 0-17 11-28 31-29 2 0 3 0 5 0 169 0 337 0 506 0 23 0 36 11 36 30-1 18-12 28-36 28-84 0-169 0-253 0z m0 347c-85 0-171 0-256-1-9 0-21-4-27-10-5-7-6-20-3-29 4-14 18-17 32-17 169 0 339 0 508 0 23 0 35 10 35 29 0 19-12 28-35 28-85 0-169 0-254 0z m399-522c-74-74-149-149-223-223 0 72 0 147 0 223 75 0 150 0 223 0z" horiz-adv-x="1000" />
<glyph glyph-name="dropdown" unicode="&#xe80c;" d="" horiz-adv-x="1000" />
<glyph glyph-name="estrella" unicode="&#xe80d;" d="m986 470c0-9-5-18-15-28l-211-206 50-290c0-3 1-7 1-12 0-8-2-15-7-20-4-6-9-9-17-9-8 0-15 2-23 7l-261 137-261-137c-9-5-16-7-23-7-8 0-15 3-19 9-4 5-6 12-6 20 0 3 1 6 1 12l50 290-211 206c-10 10-15 20-15 28 0 14 11 23 33 27l292 42 130 264c8 16 17 24 29 24s21-8 28-24l131-264 291-42c22-4 33-13 33-27z" horiz-adv-x="1000" />
<glyph glyph-name="face" unicode="&#xe80e;" d="m726 517h-154v101c0 38 25 47 43 47 17 0 108 0 108 0v166l-149 1c-166 0-203-124-203-204v-111h-96v-171h96c0-220 0-484 0-484h201c0 0 0 267 0 484h136l18 171z" horiz-adv-x="1000" />
<glyph glyph-name="flecha" unicode="&#xe80f;" d="m35 783c15-6 28-11 40-17 295-132 590-264 884-397 31-14 52-16 86-1 293 134 589 265 883 397 13 6 27 12 44 19 2-8 5-14 5-20 0-130 1-261-1-391 0-12-13-28-28-34-304-138-610-275-915-413-23-10-38-10-61 0-305 138-610 275-915 412-12 6-26 17-26 26-1 136-1 273-1 409 0 2 3 5 5 10z" horiz-adv-x="2000" />
<glyph glyph-name="flechaderecha" unicode="&#xe810;" d="" horiz-adv-x="1000" />
<glyph glyph-name="flechaizq" unicode="&#xe811;" d="" horiz-adv-x="1000" />
<glyph glyph-name="flechita" unicode="&#xe812;" d="" horiz-adv-x="1000" />
<glyph glyph-name="github" unicode="&#xe813;" d="m590 127c22 4 41 7 61 12 58 15 107 44 134 100 28 57 34 117 20 179-6 27-19 51-37 73-5 4-6 8-4 15 12 38 8 76-5 113-2 7-6 9-13 9-23-1-45-8-65-18-18-9-34-19-51-28-5-2-12-4-17-3-76 18-152 18-228 0-5-1-11 0-16 3-32 19-64 38-102 44-23 4-25 3-31-19-10-34-12-68-1-103 1-3 0-8-2-11-44-50-52-110-43-173 2-18 6-36 12-53 23-71 75-110 145-128 20-5 40-8 61-12-16-17-24-37-29-59 0-3-3-6-6-7-51-20-102-14-135 39-16 26-36 46-67 52-8 1-16 1-24-1-9-2-10-8-4-14 3-5 8-8 12-11 26-16 43-39 54-67 19-45 55-66 101-69 22-1 44 2 67 3 0-30 1-61 0-92 0-16-17-24-35-18-42 13-81 32-117 57-147 104-222 247-214 428 10 225 174 408 396 451 253 49 501-107 566-356 65-243-75-501-314-580-24-7-38 3-38 27 0 40 0 79 0 119 1 36-4 70-31 98z m-264-82c5-4 8-7 11-10-4-2-7-6-11-7-3 0-6 4-9 7 3 3 5 6 9 10z m-71 4c-5 6-8 10-10 15-1 0 5 5 6 5 4-3 8-6 10-10 1-1-2-5-6-10z m32-17c-4 4-7 7-10 11 3 2 7 6 8 5 5-2 8-6 12-9-3-2-5-4-10-7z m77 18c5-4 8-7 10-9-3-3-7-7-11-8-2-1-6 3-9 5 3 4 6 7 10 12z m-125 37c-4-3-7-6-7-6-4 3-8 6-10 9-1 1 3 5 5 7 3-3 7-6 12-10z m-27 18c-4 5-7 8-9 11-1 1 2 4 3 6 4-3 7-5 10-9 0 0-2-3-4-8z" horiz-adv-x="1000" />
<glyph glyph-name="twit" unicode="&#xe814;" d="m981 647c-35-15-73-26-113-31 41 25 72 63 87 110-38-23-81-40-126-48-36 38-87 62-144 62-109 0-197-88-197-197 0-16 1-31 5-45-164 8-310 86-407 206-17-29-27-63-27-99 0-69 35-129 88-165-33 1-63 10-90 25 0-1 0-2 0-3 0-95 68-175 159-193-17-5-34-7-52-7-13 0-25 1-37 3 25-78 98-135 184-137-68-53-153-84-245-84-16 0-32 0-47 2 87-56 191-89 302-89 364 0 563 302 563 563 0 8-1 17-1 25 39 28 72 63 98 102z" horiz-adv-x="1000" />
<glyph glyph-name="tipodeviaje" unicode="&#xe815;" d="m59 199c153 153 304 305 456 457 52-52 105-106 159-159 6 5 10 9 15 13 74 75 148 149 223 223 9 9 21 17 33 19 23 4 39-19 30-41-3-7-8-14-13-20-203-203-406-405-609-608-2-2-3-3-6-6-19 33-45 53-83 53-37 0-64-19-82-52-5 5-9 8-12 11-37 37-75 74-111 110z m-25 28c-20 16-22 56-3 81 4 4 8 9 13 13 116 117 233 234 350 351 32 32 66 35 94 10-151-152-302-303-454-455z m229-250c-35 0-65 29-64 65 1 35 30 63 65 63 36 0 64-29 64-64 0-36-28-65-65-64z" horiz-adv-x="1000" />
<glyph glyph-name="terrestre" unicode="&#xe816;" d="m162-22c-21 0-42 0-64 0-1 7-1 13-1 18 0 131-2 261 1 391 0 48 10 95 16 142 6 53 14 105 20 158 5 39 24 69 58 89 44 26 94 37 143 49 133 30 263 22 392-16 34-11 66-27 97-45 34-20 40-57 45-94 10-88 22-175 34-262 0-6 1-11 1-16 0-133 0-266 0-399 0-4-1-8-1-14-22 0-43 0-66 0 0-21 0-40 0-58-1-37-16-58-46-65-35-8-69 16-70 52-1 23-1 45-1 69-147 0-292 0-440 0 0-22 1-44 0-66-2-41-38-66-77-53-21 7-35 22-37 44-2 25-3 49-4 76z m337 387c99 0 199-1 298 0 28 0 40 13 36 42-10 72-20 144-30 216-5 34-18 46-52 46-167 0-334 0-501 0-34 0-48-12-52-46-10-70-20-141-29-212-5-35 4-46 41-46 96 0 193 0 289 0z m1 354c54 0 108-1 162 0 18 0 28 9 28 24 0 15-10 24-28 25-44 0-89 0-134 0-62 0-125 0-188 0-14 0-26-4-29-19-5-17 7-30 27-30 54-1 108 0 162 0z m223-553c0-31 25-57 56-56 30 1 55 26 55 56 0 30-26 56-57 55-30 0-55-25-54-55z m-502 55c-30 0-55-25-54-55 0-31 26-57 56-56 30 0 56 27 55 57-1 31-26 55-57 54z" horiz-adv-x="1000" />
<glyph glyph-name="tema" unicode="&#xe817;" d="m443 120c-17-1-31-3-46-3-56 0-112-1-169 3-112 8-208 108-214 220-7 129 74 234 200 257 19 4 38 4 57 4 50 0 101 2 152-2 130-11 224-120 218-250-1-26-9-51-15-77-1-3-6-8-8-8-27 1-54 3-81 7-9 1-16 9-25 14 28 47 32 94 4 141-25 40-63 60-109 61-56 1-112 2-167-1-70-4-120-59-120-128 0-67 51-121 121-126 29-2 58-1 87-2 5 0 12-2 16-6 14-18 27-39 43-56 16-16 35-30 56-48z m27 314c-31-53-32-103 2-151 25-35 61-51 103-52 56-1 112-2 167 1 70 4 120 60 120 128 0 67-51 121-120 126-29 2-59 1-89 2-5 0-12 2-15 6-24 41-57 75-97 104 12 1 24 3 36 3 59-1 118 2 177-2 113-8 207-110 214-223 8-130-84-236-201-255-20-3-40-4-61-4-47 0-94-2-141 1-134 10-231 119-225 253 1 25 10 48 15 72 1 9 6 13 16 12 22-2 45-2 67-5 11-2 21-11 32-16z" horiz-adv-x="1000" />
<glyph glyph-name="suscribirme" unicode="&#xe818;" d="m370-81c-92 4-184 8-273 32-17 5-34 13-51 21-21 10-28 27-26 50 7 86 48 152 116 202 146 109 375 96 503-28 48-47 75-104 82-171 3-27-6-44-29-56-43-21-89-30-136-35-62-7-124-10-186-15z m1 485c-104 0-188 84-188 188 0 103 83 188 186 188 106 0 189-83 189-187 1-105-82-189-187-189z m499-9c-38 0-73 0-110 0 0 36 0 72 0 109-38 0-74 0-111 0 0 38 0 73 0 111 36 0 72 0 110 0 0 38 0 74 0 111 38 0 73 0 111 0 0-36 0-72 0-110 37 0 73 0 110 0 0-37 0-73 0-111-36 0-72 0-110 0 0-38 0-73 0-110z" horiz-adv-x="1000" />
<glyph glyph-name="spaceship" unicode="&#xe819;" d="m488 312c-1-1-1-2-1-2-2-6-5-10-10-13-6-3-12-5-18-6-6 0-13 0-19 1-5 1-10 3-15 6-5 3-8 7-9 13-1 0-1 1-1 2-1 0-1-1-1-2-5-10-13-16-24-19-3-1-7-1-11-1-3 0-7 0-10 1-14 3-23 11-29 25 0-1 0-2 0-2-4-11-11-18-22-22-6-2-12-3-19-2-3 1-5 1-8 2-14 4-23 13-27 27 0 1 0 2-1 3 0-2 0-4 0-6 0-4 0-9 0-14 0-2 1-4 1-6 1-3 0-4-3-4-5 0-9 0-14 0-2 0-3 1-4 2 0 1 0 1 0 1-2 2-3 2-5 1-4-3-8-4-13-5-8-2-16-2-23 1-9 4-13 10-14 19 0 0 0 1 0 1-1-1-1-2-2-2-2-6-5-10-10-14-5-4-10-5-16-6-5-1-10 0-15 1-3 1-6 3-9 6-3 2-4 2-5-3 0-1 0-2 0-3 0-7 0-14 0-21 0-5-1-6-6-7-4 0-8 1-12 1-2 0-3 1-3 3-1 2-1 4-1 6 0 12 0 24 0 37 0 0 0 1 0 2 0 0 0 0 0 0 0 0 0 0-1-1-3-8-10-14-19-18-6-2-13-3-20-4-7 0-13 0-20 2-11 3-20 8-26 18-3 4-4 9-5 14 0 3 1 5 5 5 4 0 9 0 14 0 3 0 4-1 4-3 3-10 9-15 19-17 6-1 11 0 17 1 1 1 2 1 4 2 4 2 6 6 6 10 1 4-1 7-4 9-2 2-5 3-8 4-5 2-11 3-16 5-6 1-13 3-19 6-3 1-6 3-8 5-9 7-12 16-10 27 2 12 11 20 22 24 13 5 26 5 39 1 8-3 14-7 19-14 3-4 4-9 5-13 1-4-1-6-5-6-4 0-9 0-14 0-3 0-4 1-5 4 0 1 0 1 0 2-2 6-7 9-12 10-5 1-10 1-15 0-2 0-5-1-7-3-4-3-5-9-3-13 1-2 2-3 3-3 3-2 5-3 8-4 8-2 16-4 24-6 8-2 15-5 21-10 3-3 5-6 7-10 0 1 0 2 0 2 0 10 0 19 0 28 0 1 0 2 0 2 1 2 2 3 4 3 4 0 9 0 14 0 2 0 2 0 3-3 1-3 2-4 5-1 5 4 11 6 17 6 4 1 7 1 10 0 11-2 19-8 24-19 3-7 4-15 5-23 0-2 0-3 0-5 0 0 1 1 1 1 2 3 5 5 8 7 5 2 11 3 17 4 5 1 11 1 17 3 0 0 0 0 0 0 4 1 6 3 7 6 1 4 0 7-4 10-2 1-5 2-7 2-3 0-6 0-9-1-4 0-6-3-7-6-1 0-1-1-1-2-1-2-3-3-5-3-4 0-9 0-13 0-3 0-4 2-4 5 1 4 3 8 6 11 3 4 7 6 11 7 4 2 8 3 12 3 8 1 16 1 24-1 4-1 8-2 11-5 5-3 8-8 8-14 0-4 0-9 0-13 0 0 0 0 0 0 1 1 1 2 1 3 1 6 3 10 7 15 5 7 12 12 20 14 9 3 18 3 26 0 12-3 20-10 23-22 0 0 0-1 1-2 0 2 1 2 1 3 4 9 11 15 20 20 5 2 11 3 16 3 9 0 16-2 23-7 4-2 7-5 9-9 2-3 4-7 5-10 0-1 1-2 1-2 0 3 0 7 1 10 1 5 4 9 8 11 3 3 8 5 12 6 10 2 20 2 31-1 8-3 14-8 17-17 0-1 0-1 0-2 1-3 0-4-3-4-2 0-4 0-7 0-1 0-3 0-5 0-2 0-4 0-5 2 0 1-1 1-1 1-2 5-6 6-10 7-3 1-6 1-9 0-3-1-5-2-6-5-1-1-1-3 0-5 1-2 3-3 5-4 5-2 9-3 13-4 6-1 13-2 18-5 6-2 10-6 12-11 0-1 0-1 1-2 0 1 0 1 0 2 0 24 0 48 0 71 0 1 0 1 0 2 0 2 1 4 4 4 0 0 1 0 1 0 4 0 8 0 12 0 3 0 4-1 5-4 0-1 0-2 0-4 0-8 0-16 0-25 0-1 0-2 0-3 1-2 2-2 3-1 1 0 1 1 2 1 5 5 11 8 19 8 5 0 11-1 16-4 4-1 6-4 8-7 3-4 4-9 5-15 0-3 0-7 0-10 0-12 0-25 0-37 0-2 0-3 0-5 0-3-2-4-4-4-5 0-9 0-14 0-3 0-4 1-4 4 0 7 0 14 0 20 0 9 0 17 0 25 0 2-1 5-1 7-2 5-5 7-10 8-4 1-8 0-11-1-4-2-6-4-7-7-1-3-2-6-2-9 0-4 0-8 0-11 0-11 0-21 0-32 0-3-2-4-5-4-3 0-6 0-9 0-1 0-3 0-4 0-3 0-4 1-4 4 0 4 0 8 0 12 0 1 0 2 0 3 0 0 0 0 0 0z m-148 33c-5 0-10 0-15 0-3 0-5 1-6 3-1 3-3 6-6 8-4 3-9 3-14 2-7-2-11-8-13-15-1-2-1-5-1-7-1-7 0-14 4-20 2-5 6-8 12-8 7-1 13 1 17 7 1 1 1 3 2 5 1 2 2 3 4 4 2 0 3 0 4 0 4 0 7 0 11 0-1 7-1 14 1 21z m75-28c1 2 1 2 4 2 4 0 8 0 11 0 3 0 5-1 5-4 1-3 3-5 6-7 4-2 9-3 13-2 3 0 6 1 8 2 5 3 6 10 0 14-2 1-3 2-5 2-4 1-8 2-12 3-5 2-10 3-14 4-6 2-10 5-13 10 0 1-1 1-1 1 0-1 0-1 0-1 0-3 1-6 1-9 0-3-1-4-4-4-1 0-2 0-3 0-15 0-30 0-45 0-1 0-2 0-2 0-2-1-4-3-4-5 1-3 2-6 4-9 2-3 4-5 7-5 4-2 7-2 11-2 5 1 10 3 13 7 2 3 4 4 7 4 2 0 5 0 7 0 2 0 3-1 6-1z m-285 13c1-2 1-4 1-6 2-9 7-16 18-17 5 0 10 1 14 6 3 3 4 7 5 11 0 2 1 4 1 6 0 6-1 13-4 19-2 4-6 7-11 9-8 2-16-2-20-9-3-6-4-12-4-19z m80-14c0-5 2-8 7-10 4-1 8-1 13 0 4 1 7 4 9 8 2 4 3 9 2 14 0 1-1 2-3 2-1 0-1 0-2 0-4-1-8-2-12-2-3-1-6-2-8-3-4-2-6-5-6-9z m168 25c3 0 6 0 9 0 2 0 3 0 5 1 2 0 3 1 3 4-2 6-6 11-12 12-3 0-5 1-7 0-7 0-12-4-14-10-2-5-1-7 4-7 4 0 8 0 12 0z m-117 47c-3 2-6 4-10 5-8 2-16 3-24 4-5 0-9-1-14-2-7-1-14-4-21-6-2-1-4-3-6-4-6 4-12 7-19 9-11 3-22 3-33-3 0 0-1 0-2 0-1 1-1 1-2 2-2 1-5 2-7 3 12 4 25 9 38 13-1 1-1 1-2 1-2 1-4 2-6 3-2 0-3 1-4 2 0 2-1 3-1 4-1 2 0 3 1 4 2 1 3 2 5 2 5 2 9 4 14 6 0 0 1 0 2 1-6 13-12 26-18 39 3 1 7 2 10 1 7-1 12-4 16-9 4-4 8-9 12-13 2-3 4-6 6-8 1-2 2-3 3-4 2-3 5-4 10-3 32 9 65 18 98 26 6 2 12 3 19 1 4-1 8-3 10-7 1-2 4-4 6-4 4-2 8-2 13-2 4-1 9-1 14-2 2-1 4-2 6-4 4-3 4-8 1-12-2-2-4-4-7-5-6-4-12-6-18-8-11-4-22-7-33-10-15-3-29-7-44-13-2-1-3-2-5-3-3-1-5-3-8-4z m652-73c-2-3-3-6-5-9-6-10-16-15-28-15-8 0-15 2-21 7-2 2-3 1-4-1 0-1 0-1 0-1-1-2-2-3-4-3-4 0-9 0-13 0-3 0-4 1-4 4 0 1 0 2 0 4 0 30 0 59 0 89 0 2 0 5 0 7 0 2 1 3 4 3 4 1 9 1 13 1 4 0 5-1 5-5 0-8 0-15 0-22 0-2 0-4 0-6 1-2 2-2 3-1 1 0 1 0 2 1 4 3 8 5 13 6 2 0 4 1 6 1 5-1 10-1 15-4 5-2 9-5 12-10 4-5 6-11 7-17 2-11 2-16 0-26 2 1 4 1 7 1 2 0 5 0 8 0 2 0 4-1 5-3 1-6 5-8 10-10 6-1 11-1 16 2 3 2 4 4 5 7 0 3-2 5-4 7-3 1-6 2-9 3-7 2-14 4-21 6-3 0-6 2-9 4-6 4-8 10-7 17 0 0 0 1 0 2 1 8 5 13 12 16 5 3 11 4 17 5 5 0 10 0 15-1 3 0 6-1 9-2 8-3 13-8 15-16 0-1 1-1 1-1 0-4-1-5-4-5-4 0-8 0-11 0-3 0-5 0-6 2 0 1 0 1 0 1-2 5-6 6-11 7-3 1-6 1-9 0-2-1-4-2-6-4-1-2-1-4 1-6 1-2 3-4 5-4 4-2 8-3 13-4 6-1 12-2 18-5 9-4 14-11 12-22 0-3-1-6-2-8-1-4-4-7-8-10-6-3-12-5-18-6-7 0-13 0-19 1-6 1-11 3-15 6-6 3-9 9-10 15-1 1-1 1-1 2z m-19 18c-1 6-1 12-4 17-5 8-14 10-21 7-6-1-9-5-11-10-3-6-3-12-3-18 1-5 2-10 5-15 1-2 3-4 5-5 8-4 21-2 25 9 3 5 3 10 4 15z m-136-33c0-1 0-2 0-3 0-2-1-4-3-4-1 0-1 0-2 0-22 0-44 0-66 0-1 0-2 0-3 0-3 0-4 2-4 4 0 0 0 1 0 2 0 32 0 65 0 98 0 1 0 2 0 3 1 2 1 3 4 3 0 0 1 0 1 0 5 0 10 0 15 0 3 0 4-1 4-4 0-26 0-51 0-76 0-2 0-4 1-6 0-2 1-3 3-4 1 0 2 0 3 0 11 0 22 0 34 0 3 0 6 0 9 0 0 3 1 6 1 9 1 5 4 9 9 11 3 3 7 4 11 5 6 1 12 1 18 2 2 1 5 1 8 2 3 1 5 2 6 6 1 4 0 7-3 10-3 1-5 2-8 2-3 0-7 0-10-1-2-1-5-3-6-5 0-1-1-2-1-3-1-2-2-3-5-3-4 0-9 0-13 0-3 0-4 2-4 5 1 4 3 8 6 12 4 3 7 5 12 7 9 3 18 3 27 2 4 0 8 0 12-2 2-1 5-2 7-3 5-4 8-9 8-15 0-14 0-28 0-42 0-5 0-9 1-14 0 0 0 0 0 0 1-4 0-5-4-5-4 0-8 0-12 0-2 0-4 1-5 3 0 0-1 1-1 1-1 1-2 1-3 1 0-1-1-1-1-1-11-6-22-7-33-5-4 1-8 3-11 6 0 1-1 1-2 2z m31 5c2 0 3 0 5 1 4 0 8 2 10 6 3 5 4 10 3 15 0 3-1 3-4 3-4-1-8-2-11-2-3-1-5-1-8-2-5-1-8-5-8-10 0-5 2-8 7-10 2 0 4-1 6-1z m-192 14c0 16 0 32 0 48 0 1 0 1 0 2 0 2 1 3 3 3 2 1 3 0 5 0 3 0 5 1 8 0 3 0 4 0 4-3 1 0 1 0 1 0 0-3 2-4 4-2 7 6 15 8 24 8 12-1 21-7 26-18 4-6 5-12 6-18 1-7 0-15-2-22-3-11-9-20-20-24-5-2-9-2-14-2-2 0-4 0-6 1-5 0-9 3-13 6 0 0-1 0-1 1-1 0-3 0-3-1 0-2 0-4 0-5 0-8 0-15 0-22 0-6-2-6-6-6-4-1-8 0-12 0-3 0-4 1-4 3 0 2 0 3 0 5 0 15 0 30 0 46 0 0 0 0 0 0z m21 13c0-4 1-9 3-14 2-6 8-11 17-11 4 0 8 1 11 4 3 3 5 7 6 11 1 6 2 11 1 17-1 4-2 8-4 11-4 6-9 8-16 8-6 0-11-3-14-9-3-5-4-11-4-17z m-27 1c0-12 0-23 0-35 0-4-1-5-5-5-4 0-8 0-12 0-3 0-4 1-4 5 0 5 0 11 0 17 0 17 0 34 0 51 0 1 0 2 0 3 0 2 1 4 4 4 2 0 4 0 6 0 2 0 5 0 7 0 3 0 4-1 4-5 0-12 0-24 0-35h0z m-10 52c-3 0-5 0-7 0-3 1-4 1-4 5 0 3 0 7 0 10 0 2 1 3 3 3 2 0 3 0 5 0 3 0 6 0 8 0 4 0 5-1 5-5 0-3 0-6 0-8 0-3-1-4-3-5-3 0-5 0-7 0 0 0 0 0 0 0z m-164 103c0-4 1-8 2-13 4-1 9-2 13-2 0-1 0-1 0-1-4-1-8-2-13-2-1-5-2-9-2-13-1 0-1 0-1 0-1 4-2 8-3 12-4 1-8 2-12 3 0 0 0 0 0 1 4 0 8 1 12 2 1 5 2 9 3 13 0 0 0 0 1 0z m-113 16c3 0 6-1 9-1 0-1 0-1 0-1-3-1-6-1-9-2-1-3-1-6-2-9 0 0 0 0 0 0-1 3-2 6-2 9-3 1-6 1-10 2 4 2 7 1 10 3 0 3 1 6 2 9 0 0 0 0 0 0 1-3 1-6 2-10z m64 25c1 0 3 0 4 1 1 0 1 0 1 1 1 1 1 3 2 4 0-1 0-2 0-4 1-1 1-1 2-2 1 0 3 0 4-1-1 0-2 0-3 0-2-1-2-1-3-3 0-1 0-2 0-3-1 1-1 2-1 3-1 2-1 2-3 3-1 0-2 0-3 0 0 0 0 1 0 1z m10-54c1-1 1-3 1-4 0-1 1-2 2-2 1 0 2 0 3-1-1 0-1-1-2-1-2 0-3 0-3-2 0-1 0-1 0-1 0-1-1-1-1-2 0 1-1 2-1 3 0 1-1 2-3 2 0 0-1 1-2 1 1 1 1 1 2 1 2 0 3 1 3 3 0 1 1 2 1 3 0 0 0 0 0 0z" horiz-adv-x="1000" />
<glyph glyph-name="resultados" unicode="&#xe81a;" d="m799 304c0-109 0-218 0-327 0-45-26-71-71-71-155 0-310 0-464 0-45 0-71 26-71 70 0 219 0 438 0 657 0 38 25 67 58 69 19 2 27-5 27-24 1-11 0-23 1-35 0-26 12-38 38-38 120 0 239 0 359 0 25 0 37 12 37 37 0 13 0 25 0 37 1 17 9 24 26 24 32-1 59-29 60-63 0-36 0-73 0-109 0-75 0-151 0-227z m-340-30c-18 18-35 35-52 52-11 12-25 18-41 15-20-3-34-13-40-32-6-19-3-36 11-51 27-27 55-55 82-82 28-27 54-27 81 0 50 50 100 100 150 150 4 3 7 7 10 12 11 16 12 33 3 50-9 17-23 25-43 26-17 0-29-9-41-20-39-40-79-79-120-120z m37 375c-48 0-96 0-144 0-22 0-28 6-28 28 0 9 0 18 0 26 0 36 26 63 61 65 2 0 3 1 5 0 20-2 33 1 42 25 11 28 39 41 70 38 30-2 53-19 63-47 4-13 10-17 23-16 10 1 22 1 32-2 24-6 41-22 46-47 3-17 3-35 2-52-1-14-12-18-25-18-49 0-98 0-147 0z m0 80c15 0 28 13 28 28 0 16-12 28-28 28-16 1-28-12-28-27 0-16 12-29 28-29z" horiz-adv-x="1000" />
<glyph glyph-name="pinmap" unicode="&#xe81b;" d="m502-135c-134 125-255 255-329 422-74 166-22 342 82 447 145 147 380 138 512-22 115-139 128-293 49-456-54-112-132-207-218-296-30-32-63-62-96-95z m-1 761c-92-1-166-76-166-168 1-92 77-167 168-166 93 2 166 77 165 169-1 91-76 165-167 165z" horiz-adv-x="1000" />
<glyph glyph-name="pdf" unicode="&#xe81c;" d="m124 352c0 132 0 265 0 397 0 56 37 94 93 94 118 0 236 0 354 0 8 0 18-4 24-9 89-80 178-161 268-240 7-7 11-14 11-24-1-207-1-414-1-621 0-50-38-89-88-89-191-1-382-1-573 0-50 0-88 39-88 89 0 135 0 269 0 403z m459 412c-7 0-12 0-17 0-114 0-228 0-341 0-22 0-23-1-23-24 0-259 0-519 0-778 0-22 1-23 23-23 182 0 365 0 547 0 21 0 22 1 22 21 0 190 0 380 0 570 0 6 0 12 0 20-71 0-140 0-211 0 0 72 0 142 0 214z m-53-329c-4-24-8-47-11-71-1-8 0-19 4-26 22-35 46-69 69-104 5-8 12-8 21-8 26 1 54 3 80-2 34-6 46-39 31-70-18-35-53-49-91-34-16 7-30 19-45 27-6 4-15 7-20 5-43-13-86-27-129-41-6-2-11-10-15-16-15-24-30-50-45-74-5-8-12-14-19-20-22-19-46-21-66-7-24 17-35 45-23 70 8 17 20 34 35 46 19 16 43 26 64 41 7 4 15 11 18 19 19 52 38 105 56 159 3 9 0 20-2 29-6 27-16 54-20 82-5 35 17 64 47 69 31 4 54-15 58-50 1-8 1-16 2-24 0 0 1 0 1 0z m-64-245c23 7 42 13 63 20-13 18-25 34-37 52-9-25-17-47-26-72z" horiz-adv-x="1000" />
<glyph glyph-name="palomita" unicode="&#xe81d;" d="m379 246c166 167 326 327 483 484 46-45 90-90 131-131-202-202-408-408-611-612-122 122-250 250-376 375 41 41 86 86 131 131 78-80 158-162 242-247z" horiz-adv-x="1000" />
<glyph glyph-name="origen" unicode="&#xe81e;" d="m493-93c-139 0-278 0-417 1-29 0-41 11-41 40 0 165 1 331 0 497 0 16 4 29 19 36 15 8 30 7 44-2 21-14 41-27 61-41 101-67 202-135 304-202 27-19 37-19 66 0 118 80 236 160 355 239 21 15 42 15 57-2 5-7 10-18 10-26 1-168 0-336 0-504 0-23-13-35-38-35-140-1-280-1-420-1z m1 917c89 0 177 0 265 0 27 0 40-13 40-40 1-80 0-161 0-242 1-15-7-27-19-35-89-60-178-120-267-179-14-10-30-9-44 0-88 59-175 118-263 177-12 8-18 21-18 36 0 82-1 163 0 245 0 25 14 38 38 38 90 0 179 0 268 0z m-20-218c-8 0-14 0-20 0-25 0-50 0-76 0-11 0-18-7-18-18 0-12 6-18 18-19 8 0 15 0 23 0 24 0 48 0 73 0 0-10 0-17 0-24 0-24 0-47 0-71 1-12 7-20 19-20 13 0 19 8 20 19 0 6 0 12 0 18 0 25 0 51 0 78 7 0 13 0 19 0 25 0 51 0 76 0 12 0 19 6 19 18 0 12-6 18-18 19-6 1-13 0-19 0-26 0-51 0-77 0 0 8 0 14 0 20 0 25 0 49 0 73-1 18-16 28-28 19-6-4-10-14-10-22-2-29-1-58-1-90z" horiz-adv-x="1000" />
<glyph glyph-name="observaciones" unicode="&#xe81f;" d="m556 296c-37-22-73-28-110-1-10-42-27-81-57-112-62-63-136-85-220-59-86 26-139 86-152 175-13 84 18 153 84 206 17 14 32 30 49 44 35 31 75 50 123 52 8 0 15 6 21 11 11 9 19 21 30 30 45 40 92 38 134-5 10-11 20-12 35-14 31-4 48 12 69 29 37 29 81 26 117-12 26-26 53-38 89-46 81-19 229-156 222-264-8-109-82-198-196-215-99-14-203 55-231 155-2 8-4 16-7 26z m-480 29c0-82 66-149 148-149 81 0 148 67 148 147 1 82-65 149-147 150-83 0-149-66-149-148z m547 1c0-83 65-149 148-150 81-1 149 67 148 148 0 82-65 148-146 149-83 0-149-65-150-147z m-69 68c0 30-24 54-54 53-30 0-52-25-52-55 1-29 24-52 53-52 30 0 53 24 53 54z m-271-155c-42-33-95-31-133 1-38 32-49 85-25 130 20-83 71-127 158-131z m559 0c-41-32-93-31-131 0-39 31-50 82-27 131 21-82 71-127 158-131z" horiz-adv-x="1000" />
<glyph glyph-name="motivo" unicode="&#xe820;" d="m86 352c-22 37-33 76-28 119 4 37 22 65 58 81 130 58 258 116 388 174 7 3 18 4 26 1 138-39 275-79 413-119 9-3 16-6 16-18 0-13-1-21-14-26-119-53-239-106-358-158-3-2-5-2-8-4-28-21-57-14-88-5-118 36-238 71-356 105-3 1-6 2-9 2-12-26-18-54-14-82 5-27 17-47 47-55 90-23 179-49 268-73 35-10 71-21 107-30 8-2 18-1 26 2 101 46 202 93 303 139 17 8 34 19 52 21 16 1 34-6 50-11 4-1 4-10 6-16 3-10-2-15-11-19-84-38-167-76-250-113-61-28-123-55-184-82-8-3-19-4-27-2-129 38-257 77-386 115-5 2-11 3-17 5-14-29-20-60-13-92 5-23 18-39 44-46 126-33 253-68 379-103 7-1 15 0 22 3 114 51 228 102 341 155 26 12 45 1 66-6 4-2 6-17 5-25 0-4-6-10-11-12-46-21-92-42-138-62-85-38-169-76-254-113-7-4-17-5-24-2-142 41-282 83-423 126-12 4-25 13-33 23-29 42-39 88-26 138 7 30 26 52 55 65z m366 307c5-3 8-4 10-4 97-30 194-57 289-88 32-11 52 5 79 14-4 2-5 3-6 3-105 32-210 64-316 96-5 1-12 1-17-1-12-6-24-13-39-20z m-94-42c5-2 7-3 9-3 103-31 206-63 309-94 4-1 8-2 12 0 16 6 31 13 49 20-4 2-5 3-7 3-106 32-212 64-318 96-3 1-8 2-10 0-14-6-28-14-44-22z" horiz-adv-x="1000" />
<glyph glyph-name="moneda" unicode="&#xe821;" d="m250 568c-63 2-120 6-174 28-14 6-28 13-39 23-22 17-23 40-1 58 13 10 27 18 42 24 64 25 131 29 199 26 47-3 93-9 137-27 14-6 29-15 41-25 19-17 18-37 0-54-26-24-59-33-91-40-18-4-36-7-54-9-22-2-44-3-60-4z m503-298c-54 3-106 7-157 25-18 6-35 15-51 27-24 18-23 42 0 61 25 20 54 29 83 35 92 20 183 20 274-7 18-6 37-15 53-26 28-20 28-46 0-67-28-20-61-30-95-35-35-6-71-9-107-13z m222-130c0-29 2-54 0-79-1-17-15-27-29-35-30-18-63-26-96-32-86-13-170-12-253 14-7 3-14 5-21 8-34 14-55 36-49 76 2 14 0 29 0 46 31-39 73-50 115-58 93-17 186-16 276 16 22 8 43 19 57 44z m-954 292c31-38 75-49 119-57 91-16 182-14 271 17 23 8 44 19 58 45 0-28 1-54-1-79-1-17-14-29-28-35-27-11-54-23-83-29-89-19-179-17-267 11-17 5-33 14-49 24-15 9-22 24-21 42 0 20 0 39 0 58 0 1 1 2 1 3z m448-139c0-27 0-50 0-73 0-20-13-32-29-42-31-19-65-27-99-33-85-13-168-11-250 14-8 3-15 6-22 9-34 14-55 36-50 75 2 15 1 29 1 46 36-45 86-54 136-61 81-13 161-10 240 14 28 8 55 19 73 51z m-449 289c29-40 71-50 113-58 92-18 182-17 271 13 25 8 49 19 65 47 0-29 2-54-1-78-2-11-12-24-22-31-29-22-64-31-100-37-86-14-172-13-256 14-9 2-18 6-26 10-30 13-49 34-45 69 2 16 1 32 1 51z m0-441c28-39 69-49 110-58 87-18 174-16 260 8 40 11 60 24 79 50 0-26 1-51-1-76-1-17-13-29-28-35-26-12-52-24-79-30-85-18-171-17-255 6-23 6-44 18-65 29-15 9-22 24-21 41 0 21 0 42 0 65z m507 140c22-27 52-38 82-46 96-26 192-25 287 0 30 9 59 20 79 50 0-28 2-53-1-77-1-11-12-22-21-29-29-22-63-31-98-37-87-14-174-13-259 14-8 2-15 5-22 8-33 14-52 35-47 74 2 14 0 29 0 43z" horiz-adv-x="1000" />
<glyph glyph-name="lupita" unicode="&#xe822;" d="m976-61c0-20-8-37-22-52-14-14-32-21-51-21-21 0-38 7-52 21l-195 195c-68-47-144-70-228-70-54 0-106 10-156 31-50 21-92 50-128 86-36 36-65 79-86 128-21 50-32 102-32 156 0 55 11 107 32 156 21 50 50 93 86 129s78 64 128 85c50 21 102 32 156 32 54 0 106-11 156-32 50-21 92-49 128-85s65-79 86-129c21-49 32-101 32-156 0-83-24-159-71-227l196-196c14-14 21-31 21-51z m-367 294c50 50 75 110 75 180 0 71-25 131-75 181-50 50-111 75-181 75-70 0-131-25-181-75-50-50-75-110-75-181 0-70 25-130 75-180 50-50 111-75 181-75 70 0 131 25 181 75z" horiz-adv-x="1000" />
<glyph glyph-name="logo" unicode="&#xe823;" d="m716 188c-31 66-62 131-93 196-9-12-17-22-25-32-16-21-32-42-49-63-4-5-6-10-5-17 4-24 6-48 10-72 1-6-1-11-5-16-5-5-9-11-14-18-2 3-4 5-6 7-15 24-31 48-47 71-3 4-8 8-13 10-26 10-52 19-79 28-2 1-5 2-8 4 6 8 12 16 18 23 2 2 6 2 8 3 26 3 52 6 77 10 4 0 8 2 10 4 25 31 49 63 74 94 0 1 1 2 2 4-70 15-140 29-212 43 7 9 13 17 20 24 1 2 6 2 9 2 78 2 157 5 235 7 6 1 10 2 14 7 14 19 28 38 44 55 8 10 19 17 30 23 20 9 37-5 33-26-3-20-14-36-25-52-11-14-22-28-33-42-2-2-3-7-2-10 16-76 32-151 49-226 3-11 2-19-6-27-4-4-6-8-11-14z m-331 525c165 101 380 64 502-87 122-150 113-368-20-508-66-69-147-110-243-119-123-11-229 30-317 118-6-5-11-8-16-12-115-85-62-45-177-130-6-5-13-10-21-14-16-8-33-6-48 5-16 11-22 27-19 46 2 18 14 29 27 39 117 85 64 47 180 132 5 4 10 8 16 12-106 200-28 418 136 518z m151-615c158-27 311 80 336 236 25 162-81 311-236 335-164 25-311-81-336-242-24-155 85-303 236-329z" horiz-adv-x="1000" />
<glyph glyph-name="ifai" unicode="&#xe824;" d="m21 34c0 5 1 9 5 13 4 4 8 5 14 5 5 0 9-1 13-5 4-4 6-8 6-14 0-5-2-9-6-13-4-4-8-5-14-5-4 0-9 1-12 4-4 4-6 9-6 15z m5 0c0-4 1-8 4-10 3-3 6-4 9-4 4 0 8 1 10 4 3 2 4 6 4 9 0 4-1 8-4 10-2 3-6 4-9 4-4 0-7-1-10-4-3-2-4-6-4-9z m53 4h5v-2c1 1 2 2 3 2 1 1 2 1 3 1 1 0 3-1 4-2l-2-4c-1 0-2 1-3 1-3 0-5-2-5-7v-12h-5l0 23 0 0z m55-22c0-1 0-2 0-3 0-1 0-2 0-2-1-2-2-4-3-5-2-2-5-3-8-3-3 0-6 0-8 2-2 2-3 4-3 7h5c0-1 1-2 1-2 1-2 3-3 5-3 4 0 6 3 6 8v3c-2-2-5-3-8-3-3 0-5 1-7 3-2 2-3 5-3 9 0 3 1 6 2 8 2 3 5 4 8 4 3 0 6-1 8-3v2h5c0 0 0-22 0-22z m-5 11c0 2-1 4-2 5-1 1-3 2-5 2-2 0-3-1-4-2-1-2-2-3-2-5 0-2 1-4 2-6 1-1 2-2 4-2 2 0 4 1 5 3 1 1 2 3 2 5z m43 11h6v-23h-6v3c-2-2-4-3-7-3-3 0-6 1-8 3-2 2-3 5-3 9 0 3 1 6 3 8 2 3 5 4 8 4 3 0 5-1 7-3v2z m-12-11c0-2 0-4 1-6 2-1 3-2 5-2 2 0 3 1 5 2 1 2 2 4 2 6 0 2-1 4-2 5-2 1-3 2-5 2-2 0-3-1-5-2-1-1-1-3-1-5z m39 11h5v-2c2 2 4 3 6 3 3 0 5-1 7-3 1-1 2-3 2-7v-14h-6v13c0 2 0 4-1 5 0 1-1 1-3 1-2 0-3-1-4-2-1-1-1-3-1-6v-11h-5v23z m40 10c0 1 0 2 1 2 1 1 2 1 2 1 1 0 2 0 3-1 1 0 1-1 1-2 0-1 0-2-1-3-1 0-2-1-2-1-1 0-2 1-3 1-1 1-1 2-1 3z m6-10v-23h-5v23h5z m35-4l-5-2c0 1-1 2-2 2-1 0-1 0-1 0-1-1-1-1-1-2 0-1 1-1 3-2 3-1 5-3 6-4 1-1 1-2 1-4 0-2-1-4-2-5-2-2-4-2-6-2-4 0-7 1-8 5l4 2c1-1 2-2 2-2 0 0 1-1 2-1 2 0 3 1 3 3 0 1-1 2-2 2-1 1-1 1-2 1 0 0-1 1-1 1-2 1-3 1-4 2-1 1-1 2-1 4 0 2 1 4 2 5 2 1 3 2 5 2 3 0 5-2 7-5z m21 4h5v-2c1 1 2 2 3 2 0 1 1 1 2 1 3 0 5-1 7-4 1 3 4 4 6 4 6 0 8-3 8-10v-14h-5v13c0 2 0 4-1 5-1 1-1 1-3 1-1 0-2 0-3-2-1-1-1-2-1-5v-12h-5v13c0 4-1 6-4 6-1 0-2 0-3-2-1-1-1-2-1-5v-12h-5l0 23 0 0z m51-11c0 3 1 6 4 8 2 3 5 4 9 4 3 0 6-1 8-4 3-2 4-5 4-8 0-4-1-7-4-9-2-2-5-3-9-3-3 0-6 1-8 3-3 2-4 5-4 9z m6 0c0-3 0-4 2-6 1-1 3-2 5-2 2 0 3 1 5 2s1 3 1 6c0 2 0 4-1 5-2 1-3 2-5 2-2 0-4-1-5-2-2-1-2-3-2-5z m120-3h-15l-4-9h-6l18 39 17-39h-6l-4 9z m-2 5l-5 13-6-13h11z m36 9v-13c0-4 1-6 4-6 3 0 5 2 5 6v13h5v-13c0-2 0-4-1-5 0-1-1-2-2-3-2-2-4-2-7-2-3 0-5 0-7 2-1 1-2 2-2 3-1 1-1 3-1 5v13h6z m41-5v-18h-6v18h-2v5h2v9h6v-9h4v-5h-4z m21-6c0 3 1 6 4 8 2 3 5 4 8 4 4 0 7-1 9-4 3-2 4-5 4-8 0-4-1-7-4-9-2-2-5-3-9-3-3 0-6 1-8 3-3 2-4 5-4 9z m6 0c0-3 0-4 1-6 2-1 3-2 5-2 2 0 4 1 5 2s2 3 2 6c0 2 0 4-2 5-1 1-3 2-5 2-2 0-3-1-5-2-1-1-1-3-1-5z m14 23l-8-8-3 2 6 8 5-2z m25-12h5v-2c2 2 4 3 6 3 3 0 5-1 7-3 1-1 2-3 2-7v-14h-6v13c0 2 0 4-1 5 0 1-1 1-3 1-2 0-3-1-4-2 0-1-1-3-1-6v-11h-5v23z m40-11c0 3 1 6 3 8 3 3 6 4 9 4 4 0 6-1 9-4 2-2 3-5 3-8 0-4-1-7-3-9-3-2-6-3-9-3-3 0-6 1-9 3-2 2-3 5-3 9z m5 0c0-3 1-4 2-6 1-1 3-2 5-2 2 0 4 1 5 2s2 3 2 6c0 2-1 4-2 5-1 1-3 2-5 2-2 0-4-1-5-2-1-1-2-3-2-5z m40 11h5v-2c1 1 2 2 2 2 1 1 2 1 3 1 3 0 5-1 7-4 1 3 3 4 6 4 6 0 8-3 8-10v-14h-5v13c0 2 0 4-1 5-1 1-1 1-3 1-1 0-2 0-3-2-1-1-1-2-1-5v-12h-5v13c0 4-1 6-4 6-1 0-2 0-3-2-1-1-1-2-1-5v-12h-5l0 23 0 0z m51-11c0 3 1 6 4 8 2 3 5 4 9 4 3 0 6-1 8-4 3-2 4-5 4-8 0-4-1-7-4-9-2-2-5-3-9-3-3 0-6 1-8 3-3 2-4 5-4 9z m6 0c0-3 0-4 2-6 1-1 2-2 5-2 2 0 3 1 5 2s1 3 1 6c0 2 0 4-1 5-2 1-3 2-5 2-3 0-4-1-5-2-2-1-2-3-2-5z m-278 301c0-25 0-131 0-131h-48v28c-25-21-54-30-79-30-40 0-72 13-98 38-25 25-38 57-38 96 0 37 13 69 38 94 26 25 58 37 96 37 33 0 63-11 89-36 26-25 40-58 40-96z m-214 1c0-24 7-44 22-60 16-15 35-23 59-23 25 0 45 7 61 22 15 16 23 36 23 60 0 24-8 44-23 59-16 16-36 23-61 23-23 0-42-8-58-23-15-16-23-35-23-58z m-201 189c0-16-11-29-31-29-17 0-29 13-29 29s12 31 31 31c17 0 29-13 29-31z m-54-321v273h49v-273h-49z m548 321c0-16-12-29-31-29-18 0-30 13-30 29s13 31 31 31c18 0 30-13 30-31z m-55-321v273h49v-273h-49z m-388 2v218h-47v53h47v37c0 31 14 56 34 73 22 18 45 25 71 25 27 0 53-13 67-26l-37-40c-7 5-19 13-35 13-29 0-47-26-47-46v-36h48v-53h-48v-218l-53 0 0 0z m772-82c-2 0-4 0-5 1-4 2-7 6-7 10 0 3 0 214 0 222 0 3-3 9-8 12-5 3-43 22-75 38 1-46 2-161 2-168 0-8 5-20 12-26 10-10 58-50 58-50 5-4 6-12 2-17-4-4-12-5-16-1-2 2-49 41-60 51-11 10-19 28-19 43 0 8-2 185-2 187 0 4 2 8 5 10 4 2 8 2 12 0 8-4 85-42 93-47 12-7 20-20 20-32 0-7-1-140-1-197 24 21 62 53 66 57 3 2 3 2 3 5-1 5 0 147 0 214-23-12-62-32-66-34-10-4-22-3-31 3-4 2-57 30-90 47-4 2-6 6-6 11 1 5 4 9 8 10 30 10 80 27 85 29 9 5 16 6 27 0 7-3 41-16 53-21 6-2 9-8 7-14-2-6-9-9-15-7-5 2-46 18-54 21-4 2-5 2-5 2 0 0-1 0-4-2-5-2-37-13-61-21 26-14 63-33 68-36 2-2 6-2 8-1 4 2 52 27 82 43 4 2 8 1 12-1 3-2 5-5 5-10 0-89-1-224 0-231 1-11-3-18-11-25-6-5-84-72-85-72-2-2-5-3-7-3z m-133 87c0 0 0 0 0 0-1 0-55 0-79 0 0 0 0 0 0 0-7 0-13 3-18 7-7 7-10 19-10 34 0 15-6 177-6 178 0 3 1 6 3 9 2 2 5 3 9 3l98-3c6 0 11-5 11-12 0-6-5-11-12-11l-86 3c2-39 6-154 6-167 0-10 2-16 4-17 0-1 0-1 1-1 0 0 0 0 0 0 24 0 79 0 79 0 7 0 12-6 12-12 0-6-6-11-12-11z m129 302c-48 0-88 40-88 88 0 48 40 88 88 88 48 0 88-40 88-88 0-48-40-88-88-88z m0 152c-36 0-64-28-64-64 0-36 28-65 64-65 36 0 65 29 65 65 0 36-29 64-65 64z m-75-442c-2 0-4 1-5 3-2 3-1 7 2 8l55 33c3 1 7 0 8-2 2-3 1-7-2-8l-55-33c-1 0-2-1-3-1z m148-4c-1 0-2 1-3 1l-46 35c-2 2-3 6-1 8 2 3 6 3 8 1l46-35c2-1 3-5 1-8-1-1-3-2-5-2z m-945-61v7h30v-7h-11v-36h-7v36h-12z m30-5h7v-3c2 1 4 1 5 2 2 1 4 1 7 1v-7c-2 0-3-1-5-1-1-1-2-1-3-2-1-1-2-2-3-3 0-1-1-3-1-4v-14h-7c0 0 0 31 0 31z m19-16c0 3 1 5 2 7s2 4 3 5c2 2 4 3 6 4 2 1 4 1 6 1 3 0 5 0 7-1 2-1 4-2 5-4 2-1 3-3 4-5 1-2 1-4 1-7v-15h-7v2c-3-3-6-4-10-4-2 0-5 1-7 2-2 1-4 2-5 3-2 2-3 4-3 6-1 2-2 4-2 6z m7 0c0-1 1-2 1-3 1-2 1-3 2-3 1-1 2-2 3-3 2 0 3 0 4 0 2 0 3 0 4 0 1 1 2 2 3 2s2 2 2 3c1 2 1 3 1 4 0 2 0 3-1 4 0 1-1 2-2 3s-2 2-3 2c-1 1-2 1-4 1-1 0-2 0-4-1s-2-1-3-2-1-2-2-3c0-1-1-2-1-4z m52 3c0 1 0 2 0 3-1 0-1 1-2 2 0 0-1 1-2 1-1 1-2 1-3 1-1 0-1 0-2-1-1 0-2-1-2-1-1-1-2-2-2-2 0-1-1-2-1-3l1-18h-8v31h7v-2c1 1 2 2 3 2 2 1 3 1 4 1 2 0 4 0 6-1 2-1 3-2 4-3 2-1 3-3 3-4 1-2 2-4 2-6l0-18h-8l0 18z m27-10c0 2 0 3-1 3-1 1-2 1-4 2-1 0-2 0-3 1-1 0-2 1-3 1s-2 2-3 3c0 1-1 2-1 4 0 1 0 2 1 4 0 1 1 2 2 3 1 1 2 2 4 2 1 1 3 1 4 1 1 0 3 0 4 0 1-1 2-2 3-2 1-1 2-2 2-3 1-1 1-1 1-2h-7c0 0-1 1-3 1-1 0-2 0-3-1-1-1-1-2-1-3 0 0 1-1 2-1 1-1 3-1 5-2 1 0 2-1 3-2 1 0 2-1 3-2 1 0 2-1 2-3 0-1 1-2 1-4 0-1-1-3-1-4-1-1-2-2-3-3s-2-1-4-2c-1 0-2-1-4-1-1 0-3 1-4 1-1 1-3 1-4 2-1 1-2 2-3 4 0 1-1 3-1 4h8c0-1 0-2 1-3 1-1 2-1 3-1 1 0 2 0 3 1 1 1 1 2 1 2z m12 7c0 3 0 5 1 7s2 4 4 5c1 2 3 3 5 4 2 1 4 1 7 1 2 0 4 0 6-1 2-1 4-2 6-4 1-1 2-3 3-5 1-2 2-4 2-7 0-2-1-4-2-6-1-2-2-4-3-6-2-1-4-2-6-3-2-1-4-2-6-2-1 0-2 1-3 1-1 0-2 0-3 1 0 0-1 0-2 1-1 0-1 1-2 1v-15h-7l0 28 0 0z m7 0c0-1 0-2 1-3 0-2 1-3 2-4 1 0 2-1 3-2 1 0 2 0 4 0 1 0 2 0 4 0 1 1 2 2 3 2 0 1 1 2 2 4s0 2 0 3c0 2 0 3 0 4-1 1-2 2-2 3s-2 2-3 2c-2 1-3 1-4 1-2 0-3 0-4-1-1 0-2-1-3-2-1-1-2-2-2-3-1-1-1-2-1-4z m30 0c0 3 0 5 1 7s2 4 4 5c2 2 3 3 5 4 2 1 5 1 7 1 2 0 5 0 7-1 2-1 3-2 5-4 1-1 3-3 3-5 1-2 2-4 2-7v-15h-7v2c-3-3-6-4-10-4-3 0-5 1-7 2-2 1-4 2-5 3-2 2-3 4-4 6-1 2-1 4-1 6z m7 0c0-1 0-2 1-3 1-2 1-3 2-3s2-2 3-3c1 0 3 0 4 0 1 0 2 0 4 0 1 1 2 2 3 2 1 1 1 2 2 3 0 2 1 3 1 4 0 2-1 3-1 4-1 1-1 2-2 3s-2 2-3 2c-2 1-3 1-4 1-1 0-3 0-4-1s-2-1-3-2c-1-1-1-2-2-3-1-1-1-2-1-4z m31 16h8v-3c1 1 3 1 5 2 2 1 4 1 6 1v-7c-2 0-3-1-5-1-1-1-2-1-3-2-1-1-2-2-3-3 0-1 0-3 0-4v-14h-8l0 31 0 0z m27-16c0-1 1-3 1-4s1-2 2-3c1-1 2-1 3-2 1 0 3 0 4 0 2 0 4 0 5 1 2 1 3 3 4 4h8c-1-2-2-4-3-6-1-1-3-3-4-4-2-1-3-1-5-2s-3-1-5-1c-2 0-5 1-7 2-2 1-4 2-5 3-2 2-3 4-4 6s-1 4-1 6c0 3 0 5 1 7s2 4 4 5c1 2 3 3 5 4 2 1 5 1 7 1 3 0 5 0 7-1 2-1 4-2 5-4 2-2 3-3 4-6 0-2 1-4 1-6h-27v0z m18 6c-1 3-4 4-8 4-4 0-7-1-8-4h16z m34-3c0 1 0 2-1 3 0 0-1 1-1 2-1 0-2 1-2 1-1 1-2 1-3 1-1 0-2 0-3-1-1 0-1-1-2-1-1-1-1-2-1-2-1-1-1-2-1-3l0-18h-7v31h7v-2c1 1 2 2 3 2 1 1 2 1 4 1 2 0 4 0 5-1 2-1 4-2 5-3 1-1 2-3 3-4 1-2 1-4 1-6l0-18h-7l0 18z m18-3c0-1 0-2 1-3 0-2 1-3 2-3s2-2 3-3 2 0 4 0c1 0 3 0 4 1 1 0 3 1 3 2h8c0-2-1-3-2-5-2-1-3-2-4-3-2-1-3-2-5-2-1 0-3-1-4-1-3 0-5 1-7 2-2 1-4 2-5 3-2 2-3 4-4 6s-1 4-1 6c0 3 0 5 1 7s2 4 4 5c1 2 3 3 5 4 2 1 4 1 7 1 1 0 3 0 4 0 2-1 3-1 5-2s2-2 4-4c1-1 2-3 2-4h-8c-1 1-2 2-3 2-1 1-3 1-4 1-2 0-3 0-4-1s-2-1-3-2c-1-1-2-2-2-3-1-1-1-2-1-4z m29 24c0 1 0 2 1 3s2 1 3 1c1 0 2 0 3-1 1-1 2-2 2-3 0-2-1-3-2-4s-2-1-3-1c-1 0-2 1-3 1s-1 2-1 4z m0-8h8v-31h-8v31z m12-16c0 3 1 5 1 7 1 2 3 4 4 5 2 2 3 3 5 4 2 1 5 1 7 1 2 0 5 0 7-1 2-1 3-2 5-4 1-1 3-3 4-5 0-2 1-4 1-7v-15h-7v2c-3-3-6-4-10-4-3 0-5 1-7 2-2 1-4 2-5 3-2 2-3 4-4 6-1 2-1 4-1 6z m7 0c0-1 1-2 1-3 1-2 1-3 2-3s2-2 3-3c1 0 3 0 4 0 1 0 3 0 4 0 1 1 2 2 3 2s1 2 2 3c0 2 1 3 1 4 0 2-1 3-1 4-1 1-1 2-2 3s-2 2-3 2c-1 1-3 1-4 1-1 0-3 0-4-1s-2-1-3-2-1-2-2-3c0-1-1-2-1-4z m73 16h7v-17c0-2 0-4 0-5-1-1-2-3-2-4-1-1-2-2-4-3-1-1-3-2-4-2v-13h-8v13c-3 1-5 3-7 5-2 2-3 5-3 9v17h7l0-17c0-1 0-2 1-3 0-1 1-2 1-2 1-1 2-1 2-2 1 0 2 0 3 0 1 0 2 0 3 0 1 1 1 1 2 2 1 0 1 1 1 2 1 1 1 2 1 2v18h0z m33 12h13c5 0 9-1 11-3 3-3 4-6 4-11 0-2 0-4-1-6-1-2-2-3-3-4-1-1-3-2-5-3-1 0-3-1-6-1h-6v-15h-7v43h0z m21-14c0 3-1 4-2 5-1 1-3 2-6 2h-6v-13h6c3 0 5 0 6 1 1 1 2 3 2 5z m11 2h7v-3c2 1 3 1 5 2 2 1 4 1 6 1v-7c-1 0-3-1-4-1-1-1-3-1-4-2-1-1-1-2-2-3-1-1-1-3-1-4v-14h-7v31z m22 8c0 1 0 2 1 3s2 1 3 1c2 0 3 0 4-1 1-1 1-2 1-3 0-2 0-3-1-4s-2-1-4-1c-1 0-2 1-3 1s-1 2-1 4z m1-8h7v-31h-7v31z m10 0h8l8-21 9 21h8l-13-31h-7l-13 31z m31-16c0 3 1 5 2 7s2 4 3 5c2 2 4 3 6 4 2 1 4 1 6 1 3 0 5 0 7-1 2-1 4-2 5-4 2-1 3-3 4-5 1-2 1-4 1-7v-15h-7v2c-3-3-6-4-10-4-2 0-4 1-7 2-2 1-3 2-5 3-1 2-3 4-3 6-1 2-2 4-2 6z m8 0c0-1 0-2 0-3 1-2 2-3 3-3s1-2 3-3c1 0 2 0 3 0 2 0 3 0 4 0 1 1 2 2 3 2s2 2 2 3c1 2 1 3 1 4 0 2 0 3-1 4 0 1-1 2-2 3s-2 2-3 2c-1 1-2 1-4 1-1 0-2 0-3-1-2 0-3-1-3-2s-2-2-3-3c0-1 0-2 0-4z m37 0c0-1 0-2 1-3 0-2 1-3 2-3s2-2 3-3c1 0 2 0 4 0 1 0 3 0 4 1 1 0 2 1 3 2h8c-1-2-2-3-3-5-1-1-2-2-3-3-2-1-3-2-5-2-1 0-3-1-4-1-3 0-5 1-7 2-2 1-4 2-5 3-2 2-3 4-4 6s-1 4-1 6c0 3 0 5 1 7 1 2 2 4 4 5 1 2 3 3 5 4 2 1 4 1 7 1 1 0 3 0 4 0 2-1 3-1 5-2s2-2 3-4c2-1 2-3 3-4h-8c-1 1-2 2-3 2-2 1-3 1-4 1-2 0-3 0-4-1-1 0-2-1-3-2-1-1-2-2-2-3-1-1-1-2-1-4z m28 24c0 1 1 2 2 3s2 1 3 1c1 0 2 0 3-1s1-2 1-3c0-2 0-3-1-4s-2-1-3-1c-1 0-2 1-3 1s-2 2-2 4z m1-8h7v-31h-7v31z m46-16c0-2-1-4-1-6-1-2-2-4-4-6-2-1-3-2-5-3-2-1-5-2-7-2-2 0-5 1-7 2-2 1-3 2-5 3-1 2-3 4-4 6 0 2-1 4-1 6 0 3 1 5 1 7 1 2 3 4 4 5 2 2 3 3 5 4 2 1 5 1 7 1 1 0 2 0 3 0 1 0 2-1 2-1 1 0 2-1 3-1 1 0 1-1 2-1v14h7v-28z m-7 0c0 2-1 3-1 4-1 1-1 2-2 3-1 1-2 2-3 2-1 1-3 1-4 1-1 0-3 0-4-1-1 0-2-1-3-2s-1-2-2-3c0-1-1-2-1-4s1-2 1-3c1-2 1-3 2-3 1-1 2-2 3-3 1 0 3 0 4 0 1 0 3 0 4 0 1 1 2 2 3 3 1 0 1 1 2 3 0 1 1 2 1 3z m11 0c0 3 1 5 1 7 1 2 3 4 4 5 2 2 3 3 5 4 2 1 5 1 7 1 2 0 5 0 7-1 2-1 3-2 5-4 1-1 3-3 4-5 0-2 1-4 1-7v-15h-7v2c-3-3-6-4-10-4-3 0-5 1-7 2-2 1-4 2-5 3-2 2-3 4-4 6-1 2-1 4-1 6z m7 0c0-1 1-2 1-3 1-2 1-3 2-3s2-2 3-3c1 0 3 0 4 0 1 0 3 0 4 0 1 1 2 2 3 2s1 2 2 3c0 2 1 3 1 4 0 2-1 3-1 4-1 1-1 2-2 3s-2 2-3 2c-1 1-3 1-4 1-1 0-3 0-4-1-1 0-2-1-3-2s-1-2-2-3c0-1-1-2-1-4z m65 0c0-2-1-4-2-6-1-2-2-4-3-6-2-1-4-2-6-3-2-1-4-2-6-2-3 0-5 1-7 2-2 1-4 2-5 3-2 2-3 4-4 6-1 2-1 4-1 6 0 3 0 5 1 7 1 2 2 4 4 5 1 2 3 3 5 4 2 1 4 1 7 1 1 0 2 0 3 0 0 0 1-1 2-1 1 0 2-1 3-1 0 0 1-1 1-1v14h8l0-28 0 0z m-8 0c0 2 0 3 0 4-1 1-2 2-2 3-1 1-2 2-3 2-2 1-3 1-4 1-2 0-3 0-4-1-1 0-2-1-3-2s-2-2-2-3c-1-1-1-2-1-4s0-2 1-3c0-2 1-3 2-3s2-2 3-3c1 0 2 0 4 0 1 0 2 0 4 0 1 1 2 2 3 3 0 0 1 1 2 3 0 1 0 2 0 3z" horiz-adv-x="1000" />
<glyph glyph-name="hotel" unicode="&#xe825;" d="m112 350c260 0 519 0 779 0 0 27 0 53 0 80 0 8 0 17 2 25 4 21 21 34 42 33 20-1 36-16 39-36 1-3 1-6 1-9 0-91 0-182 0-273 0-25-16-43-40-44-24-2-42 15-44 42-1 17 0 33 0 50 0 5 0 11 0 17-261 0-519 0-779 0 0-19 0-37 0-55 0-7-1-15-2-22-5-21-22-34-43-32-20 1-36 16-39 36 0 3 0 8 0 12 0 135 0 270 0 405 0 28 15 47 39 48 21 1 39-12 43-32 1-8 2-15 2-23 0-68 0-136 0-205 0-5 0-11 0-17z m753 28c-152 0-301 0-450 0 0 65 0 128 0 193 4 0 8 1 13 1 110 0 221 0 331 0 55 0 97-32 103-80 4-22 2-46 3-69 0-14 0-29 0-45z m-553 74c0 25-1 49 0 73 1 11 3 22 9 31 8 14 24 18 40 13 15-5 25-16 25-31 1-43 1-85 0-127 0-18-15-33-33-33-57-1-113-1-170 0-21 0-35 18-35 38 1 20 17 35 38 36 20 0 41 0 61 0 21 0 42 0 65 0z m-87 14c-40 1-73 34-73 73 0 41 34 74 74 74 40-1 73-34 73-73 0-41-33-74-74-74z" horiz-adv-x="1000" />
<glyph glyph-name="graficas" unicode="&#xe826;" d="m135 354c0 132 0 263 0 394 0 56 37 94 93 94 117 0 234 0 350-1 8 0 18-4 24-9 89-79 177-159 266-238 7-7 10-13 10-23 0-206 0-411 0-616 0-50-38-89-87-89-190 0-379 0-569 0-49 0-87 39-87 89 0 133 0 266 0 399z m456 409c-7 0-12 0-17 0-113 0-226 0-339 0-21 0-22-1-22-24 0-257 0-514 0-771 0-22 1-23 22-23 181 0 362 0 543 0 21 0 22 1 22 21 0 188 0 377 0 565 0 6-1 12-1 19-70 0-139 0-208 0 0 72 0 141 0 213z m-262-308c13-2 32 4 31-17 0-19-17-15-30-16 0-21 0-42 0-63 12-1 29 3 31-17 0-11-7-14-31-16 0-21 0-42 0-64 4 0 9 0 14 0 10 0 17-7 17-16 0-8-7-15-16-16-5 0-10 0-15 0 0-21 0-42 0-63 12-2 29 3 31-18 0-10-7-14-31-16 0-21 0-41 0-63 4 0 8 0 12 0 148 0 215 0 363 0 3 0 6 0 9 0 9-1 15-7 16-16 0-9-7-16-17-16-2 0-4 0-6 0-156 0-232 0-388 0-18 0-22 4-22 23 0 156 0 311 0 467 0 2-1 5 0 7 0 9 7 16 15 16 9 0 16-6 17-15 0-12 0-24 0-35 0-15 0-30 0-46z m257-192c-1 41-1 83-1 125 1 20 13 33 31 34 17 2 31-11 33-30 1-4 1-7 1-11 0-79 0-159 0-238 0-4 0-9-1-14-3-17-17-28-35-27-16 2-28 15-28 32-1 43 0 86 0 129z m-33-33c0-32 0-64 0-96 0-15-10-28-24-31-14-4-28 2-35 15-3 5-5 12-5 18 0 63 0 125 0 188 0 20 14 35 32 35 19 0 32-15 32-36 0-31 0-62 0-93z m-160-48c0 16 0 32 0 47 0 19 13 32 30 33 18 1 33-11 33-29 1-34 1-67 0-101 0-19-15-31-33-30-17 1-30 15-30 34 0 15 0 31 0 46z" horiz-adv-x="1000" />
<glyph glyph-name="gracias" unicode="&#xe827;" d="m902 364c-85 3-169 7-254 10-203 8-406 16-609 25-30 1-33 4-33 34 0 114 0 228 0 342 0 32 10 38 40 26 305-133 609-266 914-399 3-2 8-3 10-5 9-11 22-21 25-34 4-17-10-29-25-35-28-14-57-26-85-38-279-122-558-243-837-365-4-2-8-4-12-5-19-7-30 0-30 19 0 121 0 242 0 363 0 24 18 24 34 25 55 2 109 3 163 5 217 9 433 18 650 26 16 1 32 1 49 1 0 1 0 3 0 5z" horiz-adv-x="1000" />
<glyph glyph-name="viaticos" unicode="&#xe828;" d="m492-89c-84 0-169 1-253 0-124-1-193 98-179 210 6 54 31 102 57 148 57 105 127 200 222 275 20 16 39 24 65 23 66-2 132-1 198-1 7 0 15-3 21-7 81-55 144-128 196-210 31-49 58-101 84-154 26-53 31-110 13-167-23-69-82-115-155-116-90-2-179 0-269 0 0-1 0-1 0-1z m-20 500c-7-2-13-3-18-5-40-13-67-38-72-81-4-42 17-71 52-90 17-9 37-15 54-24 14-7 28-13 39-23 21-19 16-52-9-65-10-5-22-7-33-8-33-3-62 8-92 23-4-12-6-25-11-36-5-13-2-20 11-24 25-7 49-13 76-20 0-15 0-32 0-50 16 0 30 0 46 0 0 20 0 38 0 54 17 7 33 12 46 20 62 36 65 122 5 162-13 9-29 15-43 23-19 9-37 16-55 27-13 7-19 20-17 35 3 17 14 27 29 30 14 3 30 4 44 2 19-3 37-10 57-15 3 10 5 21 9 32 6 14 3 21-12 24-20 5-39 9-60 14 0 16 0 32 0 49-16 0-30 0-46 0 0-18 0-35 0-54z m21 223c-36 0-72 0-108 1-6 0-13 3-17 7-24 33-47 67-69 100-8 11-13 23-18 35-6 17 0 31 17 35 41 10 82 21 125 2 50-23 102-25 152-2 39 19 77 11 116 1 16-4 22-17 17-32-3-10-7-19-13-28-24-37-49-74-75-110-3-5-11-8-17-8-36-1-73-1-110-1z" horiz-adv-x="1000" />
<glyph glyph-name="vuelos" unicode="&#xe829;" d="m944 138c-134 44-266 87-399 131 0-6-1-10-1-14 0-62 0-125 0-187 0-7 4-15 10-19 23-20 48-39 72-58 5-5 9-13 10-20 1-23 0-46 0-70-5 1-9 1-13 3-39 12-78 24-117 35-8 3-17 3-25 0-43-12-85-26-130-39 0 27 0 53 1 79 0 4 4 8 8 11 24 20 49 39 73 59 5 3 9 10 9 15 1 66 0 132 0 199 0 1 0 2-1 6-132-44-264-87-398-131 0 35 0 67 0 100 0 4 6 9 11 12 123 76 246 151 369 226 11 7 16 14 16 27-1 86-1 172 0 258 0 10 0 20 2 29 6 22 28 36 52 35 25-2 44-18 48-41 1-8 1-16 1-24 0-86 0-172 0-258 0-12 3-19 14-25 125-75 250-151 376-226 8-5 12-10 12-21-1-30 0-60 0-92z" horiz-adv-x="1000" />
</font>
</defs>
</svg>
